<mxfile host="app.diagrams.net" modified="2023-04-07T06:05:24.381Z" agent="Mozilla/5.0 (Macintosh; Intel Mac OS X 10_15_7) AppleWebKit/537.36 (KHTML, like Gecko) Chrome/111.0.0.0 Safari/537.36" version="21.1.4" etag="y-oQSnxsTkTrIgrDIQdc" type="google">
  <diagram name="Страница 1" id="-NXnFBOOjsaayAeDrut8">
    <mxGraphModel>
      <root>
        <mxCell id="0" />
        <mxCell id="1" parent="0" />
      </root>
    </mxGraphModel>
  </diagram>
</mxfile>
